<svg width="63" height="22" viewBox="0 0 63 22" fill="none" xmlns="http://www.w3.org/2000/svg">
<path d="M15.3872 21.6413H4.61754C3.41348 21.6413 2.3432 21.2267 1.54049 20.3973C0.670886 19.5679 0.269531 18.4621 0.269531 17.218C0.269531 15.9048 0.670886 14.7299 1.4067 13.9005C2.20941 13.002 3.14591 12.5874 4.34997 12.5874H11.3068V11.758C11.3068 11.4815 11.2399 11.2742 11.173 11.0668C11.1061 10.8595 10.9723 10.6521 10.7716 10.3757C10.5041 10.0301 10.2365 9.82277 9.96894 9.75366C9.70137 9.68454 9.30001 9.61543 8.76487 9.61543H1.27292V6.22882H8.89866C10.3034 6.22882 11.3737 6.36705 12.0426 6.57439C12.7115 6.78174 13.3136 7.19642 13.8487 7.68022C14.4507 8.30225 14.919 9.06251 15.1197 9.82277C15.3203 10.583 15.4541 11.5506 15.4541 12.7947L15.3872 21.6413ZM11.3068 18.4621V15.4902H6.22296C5.75471 15.4902 5.35336 15.6284 5.0189 15.9048C4.61754 16.1813 4.48376 16.596 4.48376 17.0798C4.48376 17.4945 4.61754 17.8401 4.952 18.1165C5.28647 18.393 5.68782 18.5312 6.08918 18.5312L11.3068 18.4621ZM31.5083 21.6413H23.8157C22.4109 21.6413 21.4076 21.5722 20.8724 21.434C19.9359 21.2267 19.1332 20.6737 18.5981 19.9135C17.9291 19.015 17.5947 17.9783 17.5947 16.8033V6.22882H21.6082V16.4578C21.6082 16.9416 21.8089 17.3563 22.2103 17.7709C22.6116 18.1165 23.0799 18.3239 23.5481 18.3239H27.4948V6.22882H31.5083V21.6413ZM43.9503 9.4772H40.0705V16.4578C40.0705 17.0798 40.2712 17.6327 40.6726 18.0474C41.1408 18.4621 41.8097 18.6694 42.5456 18.6694H43.7496V21.6413H40.0037C38.8665 21.6413 37.93 21.2267 37.1273 20.3973C36.659 19.9135 36.3915 19.3606 36.2577 18.7385C36.1239 18.1165 36.057 17.4254 36.057 16.596V9.4772H33.5151V6.22882H36.057V0.837891H40.0037V6.22882H43.9503V9.4772ZM62.7471 13.9005C62.7471 16.596 61.9444 18.6694 60.2721 20.0517C58.7335 21.3649 56.6599 21.9869 54.0511 21.9869C51.4423 21.9869 49.4355 21.3649 47.9639 20.1899C46.2915 18.8077 45.4888 16.6651 45.4888 13.7623C45.4888 11.3433 46.3584 9.40809 48.1645 8.0258C49.77 6.78174 51.7767 6.15971 54.118 6.15971C56.7268 6.15971 58.8004 6.85085 60.339 8.16403C61.8775 9.4772 62.7471 11.4815 62.7471 13.9005ZM58.2653 13.8314C58.2653 12.5874 57.8639 11.5506 57.1281 10.6521C56.3923 9.89189 55.322 9.4772 54.0511 9.4772C52.847 9.4772 51.9105 9.89189 51.1078 10.7904C50.3051 11.6889 49.9706 12.7256 49.9706 14.0388C49.9706 15.5593 50.372 16.7342 51.1747 17.6327C51.9774 18.5312 52.9808 18.9459 54.2517 18.9459C55.6565 18.9459 56.7268 18.4621 57.3957 17.5636C57.9308 16.7342 58.2653 15.4902 58.2653 13.8314Z" fill="white"/>
</svg>
