<svg width="23" height="14" viewBox="0 0 23 14" fill="none" xmlns="http://www.w3.org/2000/svg">
<path d="M6.41367 0C7.06309 0 7.65347 0.0536707 8.19017 0.171747C8.72152 0.284455 9.17772 0.472303 9.56415 0.735291C9.94521 0.992911 10.2404 1.34177 10.4497 1.77114C10.659 2.20051 10.761 2.73721 10.761 3.37053C10.761 4.05752 10.6054 4.62643 10.2941 5.088C9.98278 5.5442 9.52121 5.9199 8.904 6.20972C9.74126 6.45124 10.3638 6.87524 10.7717 7.47635C11.185 8.08283 11.389 8.80739 11.389 9.66075C11.389 10.3531 11.2548 10.9435 10.9918 11.4426C10.7234 11.9471 10.3638 12.3604 9.91301 12.6771C9.46217 12.9937 8.94693 13.2299 8.36729 13.3855C7.79301 13.5358 7.19726 13.6163 6.59078 13.6163H0V0H6.41367ZM6.02724 5.4959C6.55858 5.4959 6.99868 5.37245 7.34754 5.11483C7.69103 4.86258 7.85741 4.44931 7.85741 3.87504C7.85741 3.55838 7.80374 3.29539 7.69103 3.09144C7.57296 2.88749 7.42268 2.73185 7.22947 2.61914C7.03625 2.50106 6.82157 2.42592 6.56931 2.37762C6.32243 2.32932 6.06481 2.30785 5.79645 2.30785H2.99483V5.49053H6.02724V5.4959ZM6.19362 11.2923C6.48881 11.2923 6.7679 11.2655 7.03625 11.2065C7.3046 11.1474 7.54076 11.0562 7.7447 10.9167C7.94329 10.7825 8.10967 10.6054 8.23311 10.3746C8.35655 10.1438 8.41022 9.8486 8.41022 9.49437C8.41022 8.79129 8.21164 8.29751 7.81985 7.99159C7.42805 7.69103 6.90207 7.54612 6.25802 7.54612H3.0002V11.2923H6.19362Z" fill="white"/>
<path d="M15.6679 11.2442C16.0758 11.6414 16.6608 11.8399 17.4175 11.8399C17.965 11.8399 18.4373 11.7004 18.8291 11.4267C19.2209 11.153 19.4624 10.8578 19.5536 10.5518H21.9366C21.5556 11.738 20.9706 12.586 20.1816 13.0958C19.398 13.6057 18.4427 13.8633 17.3263 13.8633C16.5481 13.8633 15.8504 13.7399 15.2224 13.4876C14.5945 13.2354 14.0739 12.8865 13.6338 12.4303C13.2044 11.9688 12.8716 11.4267 12.6355 10.788C12.3993 10.1547 12.2812 9.45159 12.2812 8.68946C12.2812 7.95417 12.4047 7.26182 12.6462 6.6285C12.8931 5.98982 13.2312 5.43701 13.6767 4.97544C14.1222 4.5085 14.6535 4.14354 15.2761 3.87519C15.8933 3.60683 16.5749 3.47266 17.3317 3.47266C18.1636 3.47266 18.8935 3.63367 19.5214 3.96106C20.144 4.28308 20.6539 4.71782 21.0564 5.26526C21.459 5.81271 21.7434 6.43529 21.9205 7.13301C22.0976 7.83073 22.162 8.56065 22.1084 9.32815H14.997C14.997 10.1117 15.26 10.8524 15.6679 11.2442ZM18.7754 6.07033C18.4534 5.7161 17.9113 5.52288 17.2458 5.52288C16.8111 5.52288 16.4568 5.59802 16.167 5.74293C15.8879 5.88784 15.6571 6.07033 15.48 6.28501C15.3029 6.50506 15.1848 6.73584 15.1151 6.97736C15.0453 7.21888 15.0024 7.43357 14.9916 7.62678H19.398C19.339 6.93979 19.1028 6.42992 18.7754 6.07033Z" fill="white"/>
<path d="M19.9588 0.912109H14.4414V2.25388H19.9588V0.912109Z" fill="white"/>
</svg>
