<svg width="11" height="21" viewBox="0 0 11 21" fill="none" xmlns="http://www.w3.org/2000/svg">
<path d="M7.03562 20.924C6.93173 20.9282 6.86524 20.9365 6.79875 20.9365C5.3775 20.9365 3.9604 20.9323 2.53914 20.9407C2.33967 20.9407 2.28564 20.8866 2.28564 20.6872C2.2898 17.3792 2.2898 14.0671 2.2898 10.7592C2.2898 10.6719 2.2898 10.5846 2.2898 10.4724C1.51684 10.4724 0.764652 10.4724 0 10.4724C0 9.29219 0 8.13274 0 6.94005C0.0789586 6.94005 0.153761 6.94005 0.224408 6.94005C0.847766 6.94005 1.47112 6.9359 2.09448 6.94421C2.2524 6.94421 2.29395 6.8985 2.29395 6.74474C2.28564 5.81801 2.28564 4.88713 2.29395 3.96041C2.29811 3.31212 2.402 2.68045 2.70121 2.09449C3.12925 1.2675 3.80663 0.731416 4.66271 0.398959C5.36087 0.124682 6.09643 0.0249447 6.83615 0.0124775C8.04131 -0.00414532 9.24647 0.0041661 10.4516 1.03893e-05C10.5638 1.03893e-05 10.6553 -0.00414533 10.6553 0.153772C10.6511 1.29659 10.6511 2.43941 10.6511 3.58224C10.6511 3.5947 10.6469 3.60717 10.6303 3.6612C10.5597 3.6612 10.4807 3.6612 10.4018 3.6612C9.65372 3.6612 8.9057 3.65704 8.15767 3.6612C7.72547 3.6612 7.37639 3.83574 7.15614 4.21391C7.08965 4.32611 7.04809 4.47156 7.04809 4.60454C7.03563 5.31101 7.04809 6.01749 7.03978 6.72396C7.03978 6.89019 7.08965 6.9359 7.25172 6.9359C8.29065 6.92759 9.32958 6.93174 10.3685 6.93174C10.4516 6.93174 10.5306 6.93174 10.6719 6.93174C10.5264 8.12028 10.3851 9.28388 10.2397 10.4599C9.15919 10.4599 8.1078 10.4599 7.03562 10.4599C7.03562 13.9549 7.03562 17.4291 7.03562 20.924Z" fill="white"/>
</svg>
