<svg width="18" height="18" viewBox="0 0 18 18" fill="none" xmlns="http://www.w3.org/2000/svg">
<path d="M17.6008 8.8068C17.6008 10.0419 17.5759 11.2806 17.6079 12.5158C17.6611 14.7021 16.2876 16.3916 14.5378 17.144C13.835 17.4457 13.0968 17.6054 12.3337 17.6054C9.94503 17.609 7.55282 17.6409 5.16417 17.5948C3.3647 17.5593 1.88466 16.8068 0.823428 15.3232C0.266194 14.5424 0 13.6551 0 12.6932C0 10.1484 0 7.60715 0 5.06233C0 2.98601 1.01154 1.53437 2.80746 0.590264C3.5883 0.182099 4.43657 0.00818503 5.32034 0.00463577C7.63801 0.00463577 9.95922 -0.00956127 12.2769 0.0117343C14.0764 0.0259313 15.5777 0.714488 16.6851 2.16259C17.3026 2.97182 17.6008 3.90172 17.6008 4.92391C17.6008 6.21584 17.6008 7.51132 17.6008 8.8068ZM1.30968 8.8068C1.30968 10.1094 1.30968 11.4084 1.30968 12.711C1.30968 13.2931 1.44455 13.8397 1.74624 14.333C2.53772 15.6285 3.73382 16.2602 5.21741 16.2851C7.59897 16.3206 9.98407 16.2993 12.3692 16.2922C12.9548 16.2922 13.5227 16.1715 14.0515 15.9195C15.4925 15.231 16.2982 14.1342 16.2911 12.4874C16.2769 9.96741 16.2876 7.44743 16.2876 4.92746C16.2876 4.21406 16.0852 3.56099 15.6629 2.98601C14.8466 1.88219 13.7179 1.33916 12.3692 1.32496C9.99117 1.29657 7.61316 1.31431 5.23516 1.31786C4.72761 1.31786 4.23782 1.42079 3.76222 1.59825C2.45609 2.0845 1.24224 3.31609 1.29903 5.12977C1.34162 6.35781 1.30968 7.58231 1.30968 8.8068Z" fill="white"/>
<path d="M8.82204 12.5696C6.53277 12.5696 4.68715 10.7452 4.6836 8.47371C4.68005 6.23767 6.53986 4.40626 8.81494 4.40626C11.0971 4.40271 12.9498 6.23057 12.9534 8.48435C12.9534 10.7346 11.1042 12.566 8.82204 12.5696ZM8.82204 11.2563C10.3802 11.2563 11.6437 10.0105 11.6402 8.47726C11.6366 6.95817 10.3731 5.71593 8.82204 5.71593C7.26391 5.71593 5.99328 6.95462 5.99328 8.48435C5.99683 10.0176 7.26391 11.2599 8.82204 11.2563Z" fill="white"/>
<path d="M13.4285 3.16406C13.9077 3.16406 14.2981 3.57223 14.2981 4.07267C14.2946 4.57312 13.9006 4.97773 13.4214 4.97418C12.9494 4.97063 12.5625 4.56602 12.5625 4.07622C12.559 3.57578 12.9494 3.16406 13.4285 3.16406Z" fill="white"/>
</svg>
