<svg width="13" height="17" viewBox="0 0 13 17" fill="none" xmlns="http://www.w3.org/2000/svg">
<path fill-rule="evenodd" clip-rule="evenodd" d="M6.5 16.7143C6.5 16.7143 13 10.7744 13 6.26786C13 4.60552 12.3152 3.01126 11.0962 1.83581C9.87721 0.660362 8.22391 0 6.5 0C4.77609 0 3.12279 0.660362 1.90381 1.83581C0.684819 3.01126 2.56882e-08 4.60552 0 6.26786C0 10.7744 6.5 16.7143 6.5 16.7143ZM6.5 9.40178C7.36195 9.40178 8.1886 9.0716 8.7981 8.48388C9.40759 7.89615 9.75 7.09903 9.75 6.26786C9.75 5.43669 9.40759 4.63956 8.7981 4.05184C8.1886 3.46411 7.36195 3.13393 6.5 3.13393C5.63805 3.13393 4.8114 3.46411 4.2019 4.05184C3.59241 4.63956 3.25 5.43669 3.25 6.26786C3.25 7.09903 3.59241 7.89615 4.2019 8.48388C4.8114 9.0716 5.63805 9.40178 6.5 9.40178Z" fill="white"/>
</svg>
