<svg width="235" height="30" viewBox="0 0 235 30" fill="none" xmlns="http://www.w3.org/2000/svg">
<path d="M91.2449 11.7531H86.7631V23.8482H82.8164V8.36652H86.7631V10.5091C86.9637 9.95616 87.2313 9.54147 87.5658 9.1959C87.9002 8.85033 88.3016 8.57387 88.7698 8.43564C88.9705 8.36652 89.2381 8.29741 89.5057 8.22829C89.7732 8.15918 90.0408 8.15918 90.3084 8.15918C90.6428 8.15918 90.9773 8.22829 91.2449 8.29741V11.7531Z" fill="white"/>
<path d="M15.3872 23.6413H4.61754C3.41348 23.6413 2.3432 23.2267 1.54049 22.3973C0.670886 21.5679 0.269531 20.4621 0.269531 19.218C0.269531 17.9048 0.670886 16.7299 1.4067 15.9005C2.20941 15.002 3.14591 14.5874 4.34997 14.5874H11.3068V13.758C11.3068 13.4815 11.2399 13.2742 11.173 13.0668C11.1061 12.8595 10.9723 12.6521 10.7716 12.3757C10.5041 12.0301 10.2365 11.8228 9.96894 11.7537C9.70137 11.6845 9.30001 11.6154 8.76487 11.6154H1.27292V8.22882H8.89866C10.3034 8.22882 11.3737 8.36705 12.0426 8.57439C12.7115 8.78174 13.3136 9.19642 13.8487 9.68022C14.4507 10.3023 14.919 11.0625 15.1197 11.8228C15.3203 12.583 15.4541 13.5506 15.4541 14.7947L15.3872 23.6413ZM11.3068 20.4621V17.4902H6.22296C5.75471 17.4902 5.35336 17.6284 5.0189 17.9048C4.61754 18.1813 4.48376 18.596 4.48376 19.0798C4.48376 19.4945 4.61754 19.8401 4.952 20.1165C5.28647 20.393 5.68782 20.5312 6.08918 20.5312L11.3068 20.4621ZM31.5083 23.6413H23.8157C22.4109 23.6413 21.4076 23.5722 20.8724 23.434C19.9359 23.2267 19.1332 22.6737 18.5981 21.9135C17.9291 21.015 17.5947 19.9783 17.5947 18.8033V8.22882H21.6082V18.4578C21.6082 18.9416 21.8089 19.3563 22.2103 19.7709C22.6116 20.1165 23.0799 20.3239 23.5481 20.3239H27.4948V8.22882H31.5083V23.6413ZM43.9503 11.4772H40.0705V18.4578C40.0705 19.0798 40.2712 19.6327 40.6726 20.0474C41.1408 20.4621 41.8097 20.6694 42.5456 20.6694H43.7496V23.6413H40.0037C38.8665 23.6413 37.93 23.2267 37.1273 22.3973C36.659 21.9135 36.3915 21.3606 36.2577 20.7385C36.1239 20.1165 36.057 19.4254 36.057 18.596V11.4772H33.5151V8.22882H36.057V2.83789H40.0037V8.22882H43.9503V11.4772ZM62.7471 15.9005C62.7471 18.596 61.9444 20.6694 60.2721 22.0517C58.7335 23.3649 56.6599 23.9869 54.0511 23.9869C51.4423 23.9869 49.4355 23.3649 47.9639 22.1899C46.2915 20.8077 45.4888 18.6651 45.4888 15.7623C45.4888 13.3433 46.3584 11.4081 48.1645 10.0258C49.77 8.78174 51.7767 8.15971 54.118 8.15971C56.7268 8.15971 58.8004 8.85085 60.339 10.164C61.8775 11.4772 62.7471 13.4815 62.7471 15.9005ZM58.2653 15.8314C58.2653 14.5874 57.8639 13.5506 57.1281 12.6521C56.3923 11.8919 55.322 11.4772 54.0511 11.4772C52.847 11.4772 51.9105 11.8919 51.1078 12.7904C50.3051 13.6889 49.9706 14.7256 49.9706 16.0388C49.9706 17.5593 50.372 18.7342 51.1747 19.6327C51.9774 20.5312 52.9808 20.9459 54.2517 20.9459C55.6565 20.9459 56.7268 20.4621 57.3957 19.5636C57.9308 18.7342 58.2653 17.4902 58.2653 15.8314Z" fill="white"/>
<path d="M79.937 23.6413H70.5721C68.766 23.6413 67.2943 22.812 66.0903 21.1532C65.02 19.6327 64.418 17.7666 64.418 15.6932C64.418 13.6889 65.02 11.961 66.291 10.4405C67.495 8.91997 69.0335 8.22882 70.9065 8.22882H76.0572V2.83789H79.937V23.6413ZM75.9235 20.2547V11.4772H72.1775C71.1072 11.4772 70.3045 11.8919 69.6356 12.7904C68.9667 13.6198 68.6322 14.6565 68.6322 15.8314C68.6322 17.0064 68.9667 18.0431 69.5687 18.9416C70.1707 19.8401 71.0403 20.3239 72.0437 20.3239C72.0437 20.2547 75.9235 20.2547 75.9235 20.2547ZM97.329 6.50096H93.3824V2.83789H97.329V6.50096ZM97.329 23.6413H93.3824V8.22882H97.329V23.6413Z" fill="white"/>
<path d="M112.113 8.22852L107.966 19.0104L104.019 8.22852H99.2695L105.424 23.641H110.374L116.795 8.22852H112.113ZM133.853 15.0017C133.853 15.14 133.853 15.2782 133.853 15.4855C133.853 15.2782 133.853 15.14 133.853 15.0017ZM133.853 15.9002C133.853 16.1767 133.853 16.4531 133.786 16.7296C133.853 16.4531 133.853 16.1767 133.853 15.9002ZM116.662 15.0017C116.662 14.9326 116.662 14.9326 116.662 14.8635C116.662 14.8635 116.662 14.9326 116.662 15.0017ZM116.595 15.8311C116.595 15.6929 116.595 15.5546 116.595 15.4164C116.595 15.5546 116.595 15.6929 116.595 15.8311Z" fill="white"/>
<path d="M133.855 15.4164C133.855 15.2782 133.855 15.0708 133.855 14.9326C133.855 14.8635 133.855 14.8635 133.855 14.7944C133.654 12.8592 132.918 11.3387 131.581 10.2328C130.042 8.91966 127.968 8.22852 125.36 8.22852C125.36 8.22852 125.36 8.22852 125.293 8.22852C125.293 8.22852 125.293 8.22852 125.226 8.22852C122.617 8.22852 120.543 8.91966 119.005 10.2328C117.667 11.3387 116.931 12.9283 116.73 14.7944C116.73 14.8635 116.73 14.8635 116.73 14.9326C116.73 15.0708 116.73 15.2091 116.73 15.4164C116.73 15.5546 116.73 15.6929 116.73 15.8311C116.73 16.1076 116.73 16.384 116.797 16.6605C116.931 19.0104 117.801 20.5309 119.272 21.775C120.744 22.9499 122.751 23.5719 125.36 23.5719C125.36 23.5719 125.36 23.5719 125.426 23.5719C125.426 23.5719 125.426 23.5719 125.493 23.5719C127.968 23.5719 129.908 23.019 131.313 21.9823L129.039 19.7015C127.166 20.6 125.56 20.4618 125.56 20.4618H125.493C124.289 20.4618 123.286 19.978 122.483 19.1486C122.015 18.5957 121.681 18.0428 121.48 17.4207H133.989C134.056 17.1443 134.056 16.9369 134.056 16.6605C134.056 16.384 134.056 16.1076 134.056 15.762C133.855 15.6929 133.855 15.5546 133.855 15.4164ZM121.212 14.5179C121.413 13.8268 121.747 13.2048 122.216 12.721C122.55 12.3754 122.951 12.0298 123.42 11.8225C123.955 11.546 124.557 11.4769 125.226 11.4769H125.293C125.895 11.4769 126.497 11.6151 127.032 11.8225C127.5 12.0298 127.902 12.3754 128.236 12.721C128.704 13.2048 129.039 13.8268 129.239 14.5179H121.212Z" fill="white"/>
<path d="M136.998 28.8938H135.125L144.758 0.625977H146.564L136.998 28.8938Z" fill="white"/>
<path d="M152.785 8.09082C153.722 8.09082 154.592 8.22905 155.26 8.50551C155.929 8.78196 156.465 9.19665 156.866 9.68045C157.267 10.1643 157.602 10.7863 157.802 11.4774C158.003 12.1686 158.07 12.9288 158.07 13.6891V23.2269C157.869 23.296 157.602 23.3651 157.267 23.4342C156.933 23.5033 156.465 23.5725 155.996 23.6416C155.528 23.7107 154.993 23.7798 154.458 23.8489C153.856 23.918 153.321 23.918 152.719 23.918C151.916 23.918 151.247 23.8489 150.578 23.6416C149.909 23.4342 149.374 23.1578 148.906 22.8122C148.437 22.4666 148.036 21.9137 147.769 21.3608C147.501 20.7388 147.367 20.0476 147.367 19.2183C147.367 18.3889 147.501 17.6977 147.835 17.1448C148.17 16.5919 148.571 16.1081 149.106 15.6934C149.642 15.3478 150.31 15.0023 151.046 14.864C151.782 14.6567 152.652 14.5876 153.521 14.5876C153.789 14.5876 154.056 14.5876 154.324 14.6567C154.592 14.6567 154.926 14.7258 155.194 14.7949C155.461 14.864 155.729 14.864 155.929 14.9332C156.13 15.0023 156.264 15.0023 156.331 15.0714V14.1038C156.331 13.5509 156.264 13.0671 156.197 12.5833C156.13 12.0995 155.929 11.6157 155.729 11.2701C155.461 10.8554 155.127 10.5789 154.658 10.3025C154.19 10.026 153.588 9.95691 152.852 9.95691C151.782 9.95691 150.979 10.026 150.444 10.1643C149.909 10.3025 149.508 10.4407 149.307 10.5098L149.039 8.85108C149.374 8.71285 149.842 8.57462 150.511 8.43639C151.046 8.15993 151.849 8.09082 152.785 8.09082ZM152.986 22.1211C153.722 22.1211 154.324 22.1211 154.859 22.0519C155.394 21.9828 155.863 21.9137 156.197 21.8446V16.5228C155.996 16.4537 155.662 16.3154 155.194 16.2463C154.725 16.1081 154.123 16.1081 153.321 16.1081C152.852 16.1081 152.384 16.1081 151.916 16.1772C151.448 16.2463 150.979 16.3846 150.578 16.5919C150.177 16.7992 149.842 17.1448 149.575 17.4904C149.307 17.9051 149.173 18.3889 149.173 19.0109C149.173 19.5638 149.24 20.0476 149.441 20.4623C149.642 20.877 149.842 21.1535 150.177 21.4299C150.511 21.6373 150.912 21.8446 151.381 21.9137C151.849 22.0519 152.384 22.1211 152.986 22.1211Z" fill="white"/>
<path d="M172.251 21.7747C172.117 21.8438 171.984 21.9821 171.716 22.1203C171.515 22.2585 171.181 22.3968 170.913 22.535C170.579 22.6732 170.177 22.8114 169.776 22.8806C169.375 22.9497 168.907 23.0188 168.371 23.0188C167.502 23.0188 166.699 22.8806 165.896 22.6041C165.094 22.3276 164.425 21.913 163.823 21.2909C163.221 20.738 162.752 19.9778 162.418 19.0102C162.083 18.1117 161.883 16.9367 161.883 15.6235C161.883 14.5868 162.017 13.5501 162.351 12.6516C162.686 11.7531 163.154 10.9238 163.689 10.3017C164.291 9.61058 165.027 9.12678 165.896 8.7121C166.766 8.36652 167.702 8.15918 168.773 8.15918C170.111 8.15918 171.248 8.22829 172.05 8.43564C172.853 8.64298 173.522 8.78121 174.057 8.98855V22.7423C174.057 25.0231 173.522 26.6127 172.385 27.5803C171.248 28.5479 169.575 29.0318 167.301 29.0318C166.365 29.0318 165.495 28.9626 164.759 28.8244C164.023 28.6862 163.354 28.4788 162.819 28.3406L163.154 26.6127C163.622 26.8201 164.224 27.0274 165.027 27.1657C165.829 27.3039 166.565 27.373 167.368 27.373C169.107 27.373 170.378 27.0274 171.114 26.3363C171.85 25.6451 172.318 24.4702 172.318 22.8114V21.7747H172.251ZM172.251 10.2326C171.917 10.1635 171.515 10.0253 170.98 9.95616C170.445 9.88704 169.776 9.81793 168.773 9.81793C167.97 9.81793 167.301 9.95616 166.699 10.2326C166.097 10.5091 165.562 10.9238 165.161 11.4076C164.759 11.8914 164.425 12.5134 164.157 13.2737C163.956 13.9648 163.823 14.7942 163.823 15.6235C163.823 16.5911 163.956 17.4896 164.224 18.1808C164.492 18.8719 164.826 19.494 165.227 19.9086C165.629 20.3233 166.164 20.6689 166.699 20.8762C167.234 21.0836 167.769 21.1527 168.371 21.1527C169.174 21.1527 169.977 21.0145 170.646 20.8071C171.315 20.5307 171.85 20.2542 172.251 19.9086V10.2326Z" fill="white"/>
<path d="M178.07 15.9699C178.07 14.6567 178.271 13.4817 178.605 12.5141C178.94 11.5465 179.475 10.7172 180.077 10.026C180.679 9.33488 181.348 8.85108 182.084 8.57462C182.82 8.29816 183.622 8.09082 184.425 8.09082C186.231 8.09082 187.636 8.71285 188.706 9.8878C189.777 11.0627 190.312 12.9288 190.312 15.4861C190.312 15.6243 190.312 15.8316 190.312 15.9699C190.312 16.1081 190.312 16.2463 190.245 16.3846H180.01C180.077 18.2506 180.478 19.6329 181.348 20.6697C182.151 21.6373 183.489 22.1902 185.295 22.1902C186.298 22.1902 187.101 22.1211 187.636 21.9137C188.171 21.7064 188.639 21.5681 188.907 21.4299L189.241 23.0887C188.974 23.2269 188.506 23.4342 187.77 23.6416C187.034 23.8489 186.164 23.9871 185.228 23.9871C183.957 23.9871 182.887 23.7798 181.95 23.4342C181.014 23.0195 180.278 22.4666 179.743 21.7755C179.141 21.0843 178.739 20.255 178.472 19.2874C178.204 18.3198 178.07 17.0757 178.07 15.9699ZM188.439 14.7258C188.372 13.1362 188.037 11.8921 187.368 11.0627C186.699 10.1643 185.696 9.74957 184.492 9.74957C183.823 9.74957 183.221 9.8878 182.753 10.1643C182.218 10.4407 181.749 10.7863 181.415 11.2701C181.08 11.7539 180.746 12.2377 180.478 12.8597C180.278 13.4817 180.144 14.1038 180.077 14.7258H188.439Z" fill="white"/>
<path d="M194.457 8.92019C194.992 8.78196 195.728 8.57462 196.664 8.36728C197.601 8.15993 198.738 8.09082 200.076 8.09082C201.213 8.09082 202.083 8.22905 202.885 8.57462C203.621 8.92019 204.223 9.40399 204.692 9.95691C205.16 10.5789 205.427 11.3392 205.628 12.1686C205.829 12.9979 205.896 13.9656 205.896 15.0023V23.4342H204.09V15.6934C204.09 14.6567 204.023 13.6891 203.889 12.9979C203.755 12.2377 203.488 11.6848 203.153 11.201C202.819 10.7172 202.417 10.3716 201.882 10.1643C201.347 9.95691 200.678 9.8878 199.875 9.8878C199.006 9.8878 198.27 9.95691 197.601 10.026C196.999 10.0951 196.531 10.2334 196.397 10.3025V23.5725H194.591V8.92019H194.457Z" fill="white"/>
<path d="M216.535 23.8482C215.398 23.8482 214.394 23.6408 213.525 23.2952C212.655 22.9497 211.919 22.3968 211.384 21.7056C210.782 21.0145 210.381 20.1851 210.046 19.2175C209.712 18.2499 209.578 17.2132 209.578 16.0382C209.578 14.8633 209.712 13.7575 210.046 12.7898C210.381 11.8222 210.782 10.9929 211.384 10.3017C211.986 9.61058 212.655 9.05767 213.525 8.7121C214.328 8.36652 215.264 8.15918 216.334 8.15918C217.137 8.15918 217.873 8.22829 218.542 8.36652C219.211 8.50475 219.746 8.7121 220.147 8.91944L219.679 10.5782C219.278 10.3708 218.876 10.2326 218.408 10.0944C217.94 9.95616 217.338 9.88704 216.535 9.88704C214.93 9.88704 213.659 10.44 212.856 11.4767C211.986 12.5825 211.585 14.103 211.585 16.1073C211.585 17.0058 211.652 17.8352 211.852 18.5955C212.053 19.3557 212.321 19.9778 212.789 20.5307C213.257 21.0836 213.792 21.4983 214.461 21.7747C215.13 22.0512 215.933 22.2585 216.936 22.2585C217.739 22.2585 218.408 22.1894 218.943 21.9821C219.478 21.7747 219.88 21.6365 220.147 21.4983L220.549 23.157C220.214 23.3644 219.679 23.5717 218.943 23.7099C218.073 23.7099 217.338 23.8482 216.535 23.8482Z" fill="white"/>
<path d="M227.769 23.8481C227.167 22.6731 226.565 21.4291 225.963 20.1159C225.361 18.8027 224.826 17.5587 224.358 16.2455C223.89 14.9323 223.421 13.6191 222.953 12.306C222.552 10.9928 222.15 9.67961 221.883 8.43555H223.823C224.023 9.40315 224.291 10.3708 224.625 11.4766C224.96 12.5824 225.294 13.6882 225.696 14.7941C226.097 15.8999 226.565 17.144 227.034 18.3189C227.502 19.4939 228.037 20.7379 228.639 21.9129C229.04 20.7379 229.442 19.563 229.776 18.5263C230.111 17.4895 230.378 16.3837 230.646 15.347C230.913 14.3103 231.181 13.2044 231.448 12.0986C231.716 10.9928 231.984 9.81784 232.251 8.50466H234.057C233.455 11.3384 232.786 14.1029 231.984 16.7293C231.248 19.4247 230.378 21.8438 229.509 24.0554C229.174 24.9539 228.773 25.7142 228.371 26.3362C227.97 26.9582 227.569 27.5111 227.1 27.9258C226.632 28.3405 226.097 28.617 225.495 28.8243C224.893 29.0317 224.157 29.1008 223.354 29.1008C222.886 29.1008 222.418 29.0317 222.083 28.8934C221.682 28.7552 221.481 28.6861 221.348 28.617L221.682 27.0273C221.749 27.0965 221.95 27.1656 222.351 27.3038C222.686 27.442 223.087 27.442 223.421 27.442C223.956 27.442 224.425 27.3729 224.826 27.2347C225.227 27.0965 225.629 26.8891 225.963 26.6127C226.298 26.3362 226.632 25.9906 226.9 25.5068C227.301 25.0921 227.569 24.5392 227.769 23.8481Z" fill="white"/>
</svg>
