<svg width="14" height="14" viewBox="0 0 14 14" fill="none" xmlns="http://www.w3.org/2000/svg">
<path fill-rule="evenodd" clip-rule="evenodd" d="M7.67706 1.59426C10.1546 1.9059 12.0946 3.84588 12.4062 6.32343C12.453 6.72078 12.788 7.00905 13.1775 7.00905C13.2087 7.00905 13.2399 7.00905 13.271 7.00126C13.6995 6.94672 14.0034 6.55716 13.9489 6.12866C13.5515 2.94211 11.0506 0.441182 7.86404 0.0438381C7.43553 -0.00290828 7.04598 0.300943 6.99923 0.729452C6.9447 1.15796 7.24855 1.54751 7.67706 1.59426ZM7.97312 3.23817C7.56019 3.1291 7.13168 3.37841 7.02261 3.79913C6.91353 4.21985 7.16285 4.64056 7.58356 4.74964C8.40163 4.96 9.04049 5.59886 9.25864 6.42472C9.35213 6.77531 9.66378 7.00905 10.0144 7.00905C10.0767 7.00905 10.1468 7.00126 10.2092 6.98567C10.6221 6.8766 10.8714 6.44809 10.7701 6.03516C10.4039 4.65615 9.33655 3.58877 7.97312 3.23817ZM12.6244 9.54893L10.6455 9.32299C10.1702 9.26845 9.70273 9.43207 9.36772 9.76708L7.93416 11.2006C5.72929 10.0787 3.92177 8.27899 2.79985 6.06633L4.2412 4.62498C4.57621 4.28997 4.73983 3.8225 4.68529 3.34725L4.45935 1.3839C4.36586 0.597004 3.70362 0.00488281 2.90893 0.00488281H1.56107C0.680685 0.00488281 -0.0516754 0.737242 0.00286203 1.61763C0.415788 8.2712 5.73708 13.5847 12.3829 13.9976C13.2632 14.0522 13.9956 13.3198 13.9956 12.4394V11.0916C14.0034 10.3047 13.4113 9.64242 12.6244 9.54893Z" fill="white"/>
</svg>
