<svg width="22" height="13" viewBox="0 0 22 13" fill="none" xmlns="http://www.w3.org/2000/svg">
<path d="M21.8833 11.3358C21.8567 11.2784 21.8319 11.2308 21.8088 11.1926C21.4271 10.5052 20.6977 9.66137 19.621 8.66098L19.5982 8.63808L19.5868 8.62684L19.5753 8.61533H19.5638C19.0751 8.1495 18.7657 7.83628 18.6361 7.67593C18.399 7.37045 18.3459 7.06125 18.4754 6.74796C18.567 6.51125 18.9109 6.01136 19.5064 5.2476C19.8196 4.84283 20.0676 4.51842 20.2508 4.27402C21.572 2.51758 22.1448 1.39519 21.9691 0.906409L21.9008 0.792188C21.855 0.723423 21.7366 0.660515 21.5459 0.603144C21.3548 0.545893 21.1105 0.536426 20.8126 0.574579L17.5138 0.597367C17.4604 0.578431 17.3841 0.580196 17.2846 0.603144C17.1853 0.626093 17.1357 0.637607 17.1357 0.637607L17.0783 0.666293L17.0327 0.700755C16.9945 0.723543 16.9525 0.763623 16.9066 0.820914C16.861 0.878005 16.8229 0.945004 16.7924 1.02135C16.4332 1.94535 16.0249 2.80443 15.5666 3.59856C15.284 4.07209 15.0245 4.48248 14.7876 4.82995C14.5509 5.17731 14.3523 5.43323 14.1921 5.59728C14.0316 5.76149 13.8868 5.89305 13.7567 5.99242C13.6269 6.09184 13.5277 6.13384 13.4591 6.11848C13.3903 6.10311 13.3255 6.08787 13.2641 6.07262C13.1573 6.00386 13.0714 5.91034 13.0066 5.79198C12.9415 5.67363 12.8977 5.52467 12.8748 5.34521C12.852 5.16564 12.8385 5.01118 12.8346 4.88131C12.8311 4.7516 12.8327 4.56813 12.8405 4.33143C12.8484 4.0946 12.852 3.93436 12.852 3.85035C12.852 3.56013 12.8576 3.24515 12.869 2.90533C12.8805 2.56552 12.8899 2.29628 12.8977 2.09792C12.9055 1.89937 12.9091 1.6893 12.9091 1.46784C12.9091 1.24638 12.8956 1.07271 12.869 0.946649C12.8427 0.820753 12.8023 0.698549 12.749 0.580076C12.6955 0.461722 12.6171 0.370169 12.5142 0.305175C12.4111 0.240262 12.283 0.188748 12.1305 0.150474C11.7257 0.0588806 11.2103 0.0093328 10.584 0.00162981C9.16374 -0.0136157 8.25114 0.0780978 7.84641 0.27665C7.68605 0.36054 7.54094 0.475162 7.41119 0.620155C7.2737 0.788216 7.25452 0.87993 7.35378 0.895015C7.81203 0.96366 8.13643 1.12787 8.32736 1.38748L8.39617 1.52505C8.44969 1.62431 8.50313 1.80004 8.55661 2.05199C8.61001 2.30394 8.64447 2.58265 8.65963 2.88796C8.69775 3.4455 8.69775 3.92277 8.65963 4.31979C8.6214 4.71698 8.58529 5.02618 8.55083 5.24764C8.51637 5.4691 8.46485 5.64856 8.39617 5.78597C8.32736 5.92342 8.28159 6.00743 8.25864 6.03792C8.23573 6.06841 8.21663 6.08763 8.20147 6.09517C8.10221 6.1332 7.99898 6.15258 7.89214 6.15258C7.78515 6.15258 7.6554 6.09906 7.5027 5.9921C7.35005 5.88514 7.19161 5.73822 7.0274 5.55111C6.86319 5.36395 6.678 5.10241 6.47175 4.76645C6.26565 4.43048 6.05181 4.03342 5.83035 3.57525L5.64713 3.24298C5.53259 3.02922 5.37612 2.71797 5.17757 2.30951C4.97889 1.9009 4.80329 1.50564 4.65063 1.12382C4.58961 0.963459 4.49794 0.841375 4.37577 0.757365L4.31844 0.722902C4.28033 0.692411 4.21915 0.660034 4.13522 0.625531C4.05117 0.591068 3.96346 0.566354 3.87175 0.551149L0.733227 0.573937C0.412511 0.573937 0.194901 0.646594 0.0803196 0.791707L0.0344628 0.860351C0.0115545 0.898585 0 0.959648 0 1.0437C0 1.12771 0.0229083 1.23082 0.0687651 1.3529C0.526932 2.42971 1.02518 3.46821 1.5635 4.46856C2.10183 5.4689 2.56963 6.2747 2.96661 6.88525C3.36367 7.49623 3.7684 8.07287 4.18079 8.61489C4.59318 9.1571 4.86616 9.50458 4.99972 9.65724C5.13343 9.81017 5.23847 9.92451 5.31482 10.0009L5.60123 10.2757C5.7845 10.459 6.05362 10.6786 6.40872 10.9343C6.7639 11.1902 7.15711 11.4422 7.58856 11.6906C8.02009 11.9386 8.5221 12.1409 9.09489 12.2974C9.6676 12.4541 10.225 12.517 10.7672 12.4866H12.0845C12.3517 12.4636 12.5541 12.3796 12.6917 12.2346L12.7372 12.1772C12.7679 12.1316 12.7966 12.0608 12.8231 11.9655C12.8499 11.87 12.8632 11.7649 12.8632 11.6505C12.8554 11.3222 12.8803 11.0263 12.9375 10.7629C12.9946 10.4995 13.0596 10.301 13.1324 10.1673C13.2052 10.0337 13.2872 9.92094 13.3786 9.82955C13.4701 9.73796 13.5354 9.68247 13.5737 9.66337C13.6117 9.64416 13.6421 9.63112 13.665 9.62329C13.8482 9.56223 14.0639 9.62137 14.3123 9.80098C14.5606 9.98044 14.7934 10.202 15.0111 10.4654C15.2288 10.729 15.4903 11.0247 15.7957 11.353C16.1013 11.6814 16.3685 11.9255 16.5975 12.0861L16.8265 12.2236C16.9794 12.3153 17.178 12.3993 17.4224 12.4756C17.6663 12.552 17.8801 12.571 18.0636 12.5329L20.9959 12.4872C21.2859 12.4872 21.5116 12.4391 21.6717 12.3439C21.8321 12.2484 21.9273 12.1433 21.9581 12.0289C21.9887 11.9144 21.9904 11.7845 21.9639 11.6392C21.9367 11.4944 21.91 11.3931 21.8833 11.3358Z" fill="white"/>
</svg>
